<?xml version="1.0" encoding="UTF-8"?>
<svg width="392px" height="489px" viewBox="0 0 392 489" version="1.1" xmlns="http://www.w3.org/2000/svg" xmlns:xlink="http://www.w3.org/1999/xlink">
    <title>signs</title>
    <g id="Page-1" stroke="none" stroke-width="1" fill="none" fill-rule="evenodd">
        <g id="Apple-TV" transform="translate(-847.000000, -364.000000)" fill="#999999" fill-rule="nonzero">
            <g id="signs" transform="translate(847.000000, 364.000000)">
                <path d="M266.25,85.4 L39.25,85.4 C17.95,85.4 0.65,102.7 0.65,124 L0.65,449.7 C0.65,471 17.95,488.3 39.25,488.3 L266.25,488.3 C287.55,488.3 304.85,471 304.85,449.7 L304.85,124 C304.75,102.7 287.45,85.4 266.25,85.4 Z M277.75,449.6 C277.75,456 272.55,461.2 266.15,461.2 L39.15,461.2 C32.75,461.2 27.55,456 27.55,449.6 L27.55,124 C27.55,117.6 32.75,112.4 39.15,112.4 L266.15,112.4 C272.55,112.4 277.75,117.6 277.75,124 L277.75,449.6 Z" id="Shape"></path>
                <path d="M353.05,0 L126.05,0 C104.75,0 87.45,17.3 87.45,38.6 C87.45,46.1 93.45,52.1 100.95,52.1 C108.45,52.1 114.45,46.1 114.45,38.6 C114.45,32.2 119.65,27 126.05,27 L353.05,27 C359.45,27 364.65,32.2 364.65,38.6 L364.65,364.3 C364.65,370.7 359.45,375.9 353.05,375.9 C345.55,375.9 339.55,381.9 339.55,389.4 C339.55,396.9 345.55,402.9 353.05,402.9 C374.35,402.9 391.65,385.6 391.65,364.3 L391.65,38.6 C391.65,17.3 374.35,0 353.05,0 Z" id="Path"></path>
            </g>
        </g>
    </g>
</svg>