<?xml version="1.0" encoding="UTF-8"?>
<svg width="220px" height="220px" viewBox="0 0 220 220" version="1.1" xmlns="http://www.w3.org/2000/svg" xmlns:xlink="http://www.w3.org/1999/xlink">
    <!-- Generator: Sketch 52.6 (67491) - http://www.bohemiancoding.com/sketch -->
    <title>Okay Copy 5</title>
    <desc>Created with Sketch.</desc>
    <defs>
        <circle id="path-1" cx="110" cy="110" r="110"></circle>
    </defs>
    <g id="Logo" stroke="none" stroke-width="1" fill="none" fill-rule="evenodd">
        <g id="Desktop-HD" transform="translate(-353.000000, -35.000000)">
            <g id="Okay-Copy-5" transform="translate(463.000000, 145.000000) scale(-1, 1) translate(-463.000000, -145.000000) translate(353.000000, 35.000000)">
                <mask id="mask-2" fill="white">
                    <use xlink:href="#path-1"></use>
                </mask>
                <use id="Mask" fill="#E4E4E4" fill-rule="nonzero" xlink:href="#path-1"></use>
                <path d="M109.890986,220.387382 C153.107574,221.407614 180.205074,218.30064 191.183485,211.06646 C216.01255,194.705447 212.175461,155.589446 216.836277,136.238375 C217.513885,133.425036 199.255926,58.8095518 166.239697,48.0403211 C138.211119,38.897962 134.901384,92.8245558 101.22069,99.9632569 C82.0752001,104.021188 58.1845485,103.924438 38.8707256,105.417219 C16.4426159,107.150707 -0.0512144127,114.171128 0.000119493123,115.331634 C1.16606914,141.690278 8.51920866,178.508113 41.6221583,201.250385 C49.7201409,206.813832 64.5960332,213.43126 87.039246,217.964667 C91.5877802,218.883446 99.2050269,219.691018 109.890986,220.387382 Z" id="Oval" fill="#D4D4D4" fill-rule="nonzero" mask="url(#mask-2)"></path>
                <path d="M110,221.000588 C170.751322,221.000588 220,171.75191 220,111.000588 C220,83.2254257 198.047119,81.2266803 186.917689,86.8288581 C173.704234,93.4800636 168.764413,111.000588 135.788253,111.000588 C75.0369303,111.000588 0,50.2492653 0,111.000588 C0,171.75191 49.2486775,221.000588 110,221.000588 Z" id="Oval" fill="#919191" fill-rule="nonzero" opacity="0.534133185" mask="url(#mask-2)"></path>
                <path d="M109.88695,220.4787 C137.559725,220.4787 178.744318,221.677787 198.076275,204.808208 C219.206882,186.369079 228.04862,153.163807 219.951899,123.972033 C217.793004,116.188393 155.560243,76.6991329 122.785305,79.8920133 C87.3128533,83.3476811 64.7115303,117.521026 60.6324,121.359395 C56.6030969,125.150878 41.6095774,139.423161 23.1210088,134.642152 C17.9887403,133.314984 10.2817373,125.658743 9.9475983e-14,111.673426 C9.9475983e-14,130.122565 9.9475983e-14,139.436395 9.9475983e-14,139.614917 C9.9475983e-14,169.874835 5.53394741,177.93999 25.278308,197.283582 C45.173712,216.775152 79.3955451,220.4787 109.88695,220.4787 Z" id="Oval" fill="#929292" fill-rule="nonzero" opacity="0.53843471" mask="url(#mask-2)"></path>
                <path d="M110,220.556027 C120.356783,226.786037 129.458622,228.862161 137.305517,226.784399 C150.124016,223.390217 175.983684,220.050531 181.908624,217.091576 C205.816257,205.151942 200.224782,175.690574 207.88894,160.783987 C208.261407,160.059548 181.799017,160.059548 156.41189,149.306609 C128.469645,137.471427 96.1610955,113.15225 64.6985076,113.15225 C19.925064,113.15225 3.04737969,139.60434 6.14476231,146 C9.59623356,153.126803 4.42369798,177.189661 35.9428376,202.834757 C42.2771905,207.988612 57.8147313,209.600191 74.2596866,214.966971 C80.6812442,217.062634 92.594682,218.925653 110,220.556027 Z" id="Oval" fill="#3C393A" fill-rule="nonzero" opacity="0.779436384" mask="url(#mask-2)"></path>
            </g>
        </g>
    </g>
</svg>