<?xml version="1.0" encoding="UTF-8"?>
<svg width="220px" height="220px" viewBox="0 0 220 220" version="1.1" xmlns="http://www.w3.org/2000/svg" xmlns:xlink="http://www.w3.org/1999/xlink">
    <!-- Generator: Sketch 52.6 (67491) - http://www.bohemiancoding.com/sketch -->
    <title>Sunset</title>
    <desc>Created with Sketch.</desc>
    <defs>
        <circle id="path-1" cx="110" cy="110" r="110"></circle>
    </defs>
    <g id="Logo" stroke="none" stroke-width="1" fill="none" fill-rule="evenodd">
        <g id="Desktop-HD" transform="translate(-1186.000000, -255.000000)">
            <g id="Sunset" transform="translate(1296.000000, 365.000000) scale(-1, 1) translate(-1296.000000, -365.000000) translate(1186.000000, 255.000000)">
                <mask id="mask-2" fill="white">
                    <use xlink:href="#path-1"></use>
                </mask>
                <use id="Mask" fill="#EDEDED" fill-rule="nonzero" opacity="0.711542039" xlink:href="#path-1"></use>
                <path d="M112.709841,138.036155 C118.558548,129.850696 122,119.827245 122,109 C122,81.3857625 99.6142375,59 72,59 C44.3857625,59 22,81.3857625 22,109 C22,116.265202 25.1349361,125.997185 31.4048084,138.195948 C82.9017605,141.877121 110.003438,141.823857 112.709841,138.036155 Z" id="Oval-Copy" stroke="#F3660A" fill="#F3660A" fill-rule="nonzero" mask="url(#mask-2)"></path>
                <path d="M109.890986,220.387382 C153.107574,221.407614 180.205074,218.30064 191.183485,211.06646 C212.339697,197.125659 216.914078,147.433635 220.147366,121.078219 C220.708685,116.502751 219.457912,112.67053 220.147366,109.808011 C220.824975,106.994673 201.462443,59.8191832 165.636745,56.9587801 C134.901384,54.504801 134.901384,92.8245558 101.22069,99.9632569 C82.0752001,104.021188 60.9359811,90.9021895 41.6221583,92.3949712 C19.1940486,94.1284588 -0.0512144127,114.171128 0.000119493123,115.331634 C1.16606914,141.690278 8.51920866,178.508113 41.6221583,201.250385 C49.7201409,206.813832 64.5960332,213.43126 87.039246,217.964667 C91.5877802,218.883446 99.2050269,219.691018 109.890986,220.387382 Z" id="Oval" fill="#94C5FF" fill-rule="nonzero" mask="url(#mask-2)"></path>
                <path d="M110,220.556027 C120.356783,226.786037 129.458622,228.862161 137.305517,226.784399 C150.124016,223.390217 175.983684,220.050531 181.908624,217.091576 C205.816257,205.151942 200.055939,175.470454 207.720097,160.563867 C208.092565,159.839428 179.387127,171.316807 154,160.563867 C139.220358,154.303821 96.4637379,128.692168 61.2191446,125.844479 C29.8306594,123.308356 4.68569497,142.987231 6.14476231,146 C9.59623356,153.126803 4.42369798,177.189661 35.9428376,202.834757 C42.2771905,207.988612 57.8147313,209.600191 74.2596866,214.966971 C80.6812442,217.062634 92.594682,218.925653 110,220.556027 Z" id="Oval" stroke="#005079" fill="#005079" fill-rule="nonzero" opacity="0.779436384" mask="url(#mask-2)"></path>
            </g>
        </g>
    </g>
</svg>