<?xml version="1.0" encoding="UTF-8"?>
<svg width="124px" height="119px" viewBox="0 0 124 119" version="1.1" xmlns="http://www.w3.org/2000/svg" xmlns:xlink="http://www.w3.org/1999/xlink">
    <!-- Generator: Sketch 52.6 (67491) - http://www.bohemiancoding.com/sketch -->
    <title>Halo</title>
    <desc>Created with Sketch.</desc>
    <g id="Logo" stroke="none" stroke-width="1" fill="none" fill-rule="evenodd">
        <g id="Desktop-HD" transform="translate(-1240.000000, -535.000000)" fill-rule="nonzero">
            <g id="Halo" transform="translate(1230.000000, 536.000000)">
                <path d="M112.709841,79.0361553 C118.558548,70.8506959 122,60.827245 122,50 C122,22.3857625 99.6142375,0 72,0 C44.3857625,0 22,22.3857625 22,50 C22,57.2652022 25.1349361,66.9971849 31.4048084,79.1959482 C82.9017605,82.8771208 110.003438,82.8238565 112.709841,79.0361553 Z" id="Oval-Copy" stroke="#F3660A" fill="#F3660A"></path>
                <g id="Oval-+-Triangle-Copy-+-Triangle-+-Oval-Mask" transform="translate(0.000000, 20.000000)" fill="#FFFFFF">
                    <path d="M71.9959128,17.608288 L109.442014,77.0726922 C113.267861,83.1481359 111.444202,91.1747175 105.368758,95.0005639 C103.294361,96.3068593 100.892885,97 98.4414502,97 L23.5492474,97 C16.3695457,97 10.5492474,91.1797017 10.5492474,84 C10.5492474,81.5485657 11.2423881,79.1470891 12.5486835,77.0726922 L49.9947849,17.608288 C53.8206314,11.5328443 61.847213,9.70918545 67.9226567,13.5350319 C69.5679278,14.571097 70.9598477,15.9630169 71.9959128,17.608288 Z" id="Triangle-Copy"></path>
                    <path d="M103.428735,33.3710499 L131.26634,77.3843342 C135.104166,83.4522174 133.296348,91.4823816 127.228465,95.3202078 C125.149278,96.6352556 122.739622,97.3333333 120.279466,97.3333333 L64.6042552,97.3333333 C57.4245534,97.3333333 51.6042552,91.5130351 51.6042552,84.3333333 C51.6042552,81.8731774 52.3023329,79.4635207 53.6173807,77.3843342 L81.454986,33.3710499 C85.2928122,27.3031667 93.3229764,25.4953483 99.3908596,29.3331746 C101.019451,30.3632293 102.39868,31.7424583 103.428735,33.3710499 Z" id="Triangle"></path>
                </g>
                <g id="Oval-+-Triangle-Copy-+-Triangle-+-Oval-Mask-Copy" transform="translate(0.000000, 20.000000)">
                    <path d="M71.9959128,17.608288 L109.442014,77.0726922 C113.267861,83.1481359 111.444202,91.1747175 105.368758,95.0005639 C103.294361,96.3068593 100.892885,97 98.4414502,97 L23.5492474,97 C16.3695457,97 10.5492474,91.1797017 10.5492474,84 C10.5492474,81.5485657 11.2423881,79.1470891 12.5486835,77.0726922 L49.9947849,17.608288 C53.8206314,11.5328443 61.847213,9.70918545 67.9226567,13.5350319 C69.5679278,14.571097 70.9598477,15.9630169 71.9959128,17.608288 Z" id="Triangle-Copy" fill="#29779C" opacity="0.390252976"></path>
                    <path d="M103.428735,33.3710499 L131.26634,77.3843342 C135.104166,83.4522174 133.296348,91.4823816 127.228465,95.3202078 C125.149278,96.6352556 122.739622,97.3333333 120.279466,97.3333333 L64.6042552,97.3333333 C57.4245534,97.3333333 51.6042552,91.5130351 51.6042552,84.3333333 C51.6042552,81.8731774 52.3023329,79.4635207 53.6173807,77.3843342 L81.454986,33.3710499 C85.2928122,27.3031667 93.3229764,25.4953483 99.3908596,29.3331746 C101.019451,30.3632293 102.39868,31.7424583 103.428735,33.3710499 Z" id="Triangle" fill="#2478F3" opacity="0.729980469"></path>
                </g>
            </g>
        </g>
    </g>
</svg>